<?xml version="1.0" encoding="UTF-8" standalone="no"?>
<!-- Created with Inkscape (http://www.inkscape.org/) -->

<svg
   xmlns:dc="http://purl.org/dc/elements/1.1/"
   xmlns:cc="http://creativecommons.org/ns#"
   xmlns:rdf="http://www.w3.org/1999/02/22-rdf-syntax-ns#"
   xmlns:svg="http://www.w3.org/2000/svg"
   xmlns="http://www.w3.org/2000/svg"
   xmlns:xlink="http://www.w3.org/1999/xlink"
   xmlns:sodipodi="http://sodipodi.sourceforge.net/DTD/sodipodi-0.dtd"
   xmlns:inkscape="http://www.inkscape.org/namespaces/inkscape"
   width="2101.1172"
   height="614.17273"
   id="svg2"
   version="1.1"
   inkscape:version="0.48.1 r9760"
   sodipodi:docname="youtestit.svg"
   inkscape:export-filename="../youtestit.png"
   inkscape:export-xdpi="9.3784695"
   inkscape:export-ydpi="9.3784695">
  <defs
     id="defs4">
    <linearGradient
       id="linearGradient3792">
      <stop
         style="stop-color:#af6c00;stop-opacity:1;"
         offset="0"
         id="stop3794" />
      <stop
         id="stop3800"
         offset="0.46551725"
         style="stop-color:#ff9d00;stop-opacity:1;" />
      <stop
         style="stop-color:#ff9d00;stop-opacity:1;"
         offset="1"
         id="stop3796" />
    </linearGradient>
    <linearGradient
       id="linearGradient3772">
      <stop
         style="stop-color:#eaeaea;stop-opacity:1;"
         offset="0"
         id="stop3774" />
      <stop
         style="stop-color:#ffffff;stop-opacity:1;"
         offset="1"
         id="stop3776" />
    </linearGradient>
    <linearGradient
       inkscape:collect="always"
       xlink:href="#linearGradient3772"
       id="linearGradient3778"
       x1="668.53381"
       y1="719.54852"
       x2="668.53381"
       y2="738.80493"
       gradientUnits="userSpaceOnUse" />
    <linearGradient
       inkscape:collect="always"
       xlink:href="#linearGradient3772"
       id="linearGradient3788"
       gradientUnits="userSpaceOnUse"
       x1="668.53381"
       y1="719.54852"
       x2="668.53381"
       y2="744.61841"
       gradientTransform="matrix(80.20253,0,0,3.0151899,-52408.514,-2031.4308)" />
    <linearGradient
       inkscape:collect="always"
       xlink:href="#linearGradient3792"
       id="linearGradient3798"
       x1="1232.6089"
       y1="-740.56488"
       x2="1232.6089"
       y2="-743.40668"
       gradientUnits="userSpaceOnUse"
       gradientTransform="translate(1.010153,877.82256)" />
    <linearGradient
       inkscape:collect="always"
       xlink:href="#linearGradient3772"
       id="linearGradient3002"
       gradientUnits="userSpaceOnUse"
       gradientTransform="matrix(80.20253,0,0,3.0151899,-52408.514,-2031.4308)"
       x1="668.53381"
       y1="719.54852"
       x2="668.53381"
       y2="744.61841" />
    <linearGradient
       inkscape:collect="always"
       xlink:href="#linearGradient3792"
       id="linearGradient3004"
       gradientUnits="userSpaceOnUse"
       gradientTransform="translate(1.010153,877.82256)"
       x1="1232.6089"
       y1="-740.56488"
       x2="1232.6089"
       y2="-743.40668" />
    <filter
       inkscape:collect="always"
       id="filter3890"
       color-interpolation-filters="sRGB">
      <feGaussianBlur
         inkscape:collect="always"
         stdDeviation="0.70907789"
         id="feGaussianBlur3892" />
    </filter>
    <filter
       inkscape:collect="always"
       id="filter3898"
       x="-0.011816947"
       width="1.023634"
       y="-0.12549621"
       height="1.2509924"
       color-interpolation-filters="sRGB">
      <feGaussianBlur
         inkscape:collect="always"
         stdDeviation="1.004175"
         id="feGaussianBlur3900" />
    </filter>
    <filter
       inkscape:collect="always"
       id="filter3812"
       color-interpolation-filters="sRGB">
      <feGaussianBlur
         inkscape:collect="always"
         stdDeviation="10.833006"
         id="feGaussianBlur3814" />
    </filter>
    <filter
       inkscape:collect="always"
       id="filter3820"
       x="-0.011816947"
       width="1.023634"
       y="-0.12549621"
       height="1.2509924"
       color-interpolation-filters="sRGB">
      <feGaussianBlur
         inkscape:collect="always"
         stdDeviation="8.9715674"
         id="feGaussianBlur3822" />
    </filter>
  </defs>
  <sodipodi:namedview
     id="base"
     pagecolor="#ffffff"
     bordercolor="#666666"
     borderopacity="1.0"
     inkscape:pageopacity="0.0"
     inkscape:pageshadow="2"
     inkscape:zoom="0.49497475"
     inkscape:cx="1472.2097"
     inkscape:cy="284.98545"
     inkscape:document-units="px"
     inkscape:current-layer="layer2"
     showgrid="false"
     fit-margin-top="0"
     fit-margin-left="0"
     fit-margin-right="0"
     fit-margin-bottom="0"
     inkscape:window-width="1680"
     inkscape:window-height="971"
     inkscape:window-x="0"
     inkscape:window-y="25"
     inkscape:window-maximized="1"
     showguides="true"
     inkscape:guide-bbox="true"
     inkscape:snap-grids="false" />
  <metadata
     id="metadata7">
    <rdf:RDF>
      <cc:Work
         rdf:about="">
        <dc:format>image/svg+xml</dc:format>
        <dc:type
           rdf:resource="http://purl.org/dc/dcmitype/StillImage" />
        <dc:title></dc:title>
      </cc:Work>
    </rdf:RDF>
  </metadata>
  <g
     inkscape:groupmode="layer"
     id="layer2"
     inkscape:label="shadows"
     style="opacity:0.54804269;display:inline"
     transform="translate(-4.0406098,678.82251)">
    <path
       id="path3793-5"
       style="font-size:61.61133575px;font-style:normal;font-variant:normal;font-weight:bold;font-stretch:normal;line-height:125%;letter-spacing:0px;word-spacing:0px;fill:#242424;fill-opacity:1;stroke:none;display:inline;filter:url(#filter3812);font-family:Ubuntu;-inkscape-font-specification:Ubuntu Bold"
       d="m 2029.4088,-554.4275 c -5.6765,29.1776 -12.048,56.16354 -19.1154,80.95774 -7.0665,24.79481 -14.924,49.80928 -23.5715,75.04385 l -61.5967,-11.98373 c 1.4431,-26.63621 3.3572,-52.80696 5.7416,-78.51271 2.7438,-25.63534 6.9544,-53.04169 12.6309,-82.21929 l 18.8166,-96.71754 85.9111,16.71414 -18.8166,96.71754 m -38.7036,236.40629 c -3.0835,15.84946 -10.6887,27.08068 -22.8173,33.6934 -11.7681,6.68285 -24.1352,8.76297 -37.1032,6.24004 -12.9679,-2.52294 -23.8338,-9.12309 -32.5977,-19.80046 -8.4042,-10.60742 -11.065,-23.8359 -7.9815,-39.68536 3.0835,-15.84938 10.5098,-27.11541 22.2779,-33.79834 12.1277,-6.6128 24.6755,-8.65778 37.6435,-6.13493 12.9679,2.52302 23.6531,9.08803 32.0574,19.69536 8.7647,10.67762 11.6044,23.94091 8.5209,39.79029 m -324.6394,-246.82027 63.8981,-10.29221 -2e-4,66.47089 76.7635,8e-5 -5e-4,53.17659 -76.7627,1.8e-4 -2e-4,79.33625 c -10e-5,13.4371 2.2874,24.15834 6.861,32.16318 4.8603,8.00527 14.4385,12.00791 28.7328,12.00777 6.8618,1.1e-4 13.8659,-0.57183 21.0139,-1.71529 7.433,-1.42951 14.1512,-3.28788 20.1556,-5.57504 l 9.0059,49.74608 c -7.7194,3.14481 -16.2965,5.86073 -25.7313,8.14791 -9.4339,2.28727 -21.0126,3.43084 -34.7363,3.43071 -17.4399,0 -31.8773,-2.2871 -43.313,-6.86138 -11.4364,-4.8604 -20.585,-11.436 -27.4458,-19.72681 -6.8615,-8.57685 -11.7219,-18.86914 -14.5811,-30.87689 -2.5734,-12.00768 -3.8598,-25.3018 -3.8601,-39.88272 l 4e-4,-189.5493 m -22.005,281.75102 -63.8981,0 3e-4,-225.57232 63.8981,9e-5 -3e-4,225.57223 m 6.004,-290.75671 c -5e-4,11.72199 -3.8606,21.01345 -11.5786,27.87498 -7.4339,6.57574 -16.2962,9.86366 -26.5884,9.86341 -10.2924,2.7e-4 -19.2987,-3.28768 -27.0174,-9.86351 -7.4338,-6.86127 -11.15,-16.15285 -11.1503,-27.87492 4e-4,-11.72137 3.7145,-20.87058 11.1502,-27.44607 7.7189,-6.86127 16.7245,-10.29204 27.0168,-10.29232 10.2922,3.5e-4 19.1553,3.43089 26.589,10.29242 7.7187,6.57583 11.5783,15.72447 11.5787,27.44601 m -293.1018,9.00579 63.8972,-10.29238 -2e-4,66.47089 76.7635,8e-5 4e-4,53.17676 -76.7635,1e-5 -2e-4,79.33625 c 7e-4,13.43728 2.2874,24.15834 6.8618,32.16335 4.8603,8.00518 14.4376,12.00774 28.7328,12.00768 6.861,3e-5 13.8659,-0.57174 21.013,-1.71546 7.433,-1.42942 14.1521,-3.28762 20.1556,-5.57495 l 9.006,49.74599 c -7.7194,3.14482 -16.2957,5.86099 -25.7305,8.14817 -9.4347,2.2871 -21.0135,3.43067 -34.7363,3.43071 -17.4399,0 -31.8781,-2.28727 -43.3138,-6.86154 -11.4356,-4.86024 -20.5842,-11.43584 -27.4459,-19.72682 -6.8615,-8.57684 -11.7219,-18.86914 -14.581,-30.87689 -2.5726,-12.0075 -3.859,-25.30163 -3.8593,-39.88255 l 4e-4,-189.5493 m -104.9065,235.8646 c 11.7213,-6e-5 20.0125,-1.14356 24.8727,-3.43084 4.8603,-2.28712 7.2906,-6.71842 7.2903,-13.29425 -10e-5,-5.14606 -3.1445,-9.57739 -9.4344,-13.29415 -6.2897,-4.00245 -15.8673,-8.43386 -28.7328,-13.29421 -10.0061,-3.71646 -19.1552,-7.57619 -27.4455,-11.57866 -8.0055,-4.00249 -14.867,-8.71981 -20.5846,-14.15189 -5.7185,-5.71794 -10.1491,-12.43639 -13.2947,-20.15584 -3.1447,-7.71903 -4.7174,-17.01073 -4.7172,-27.87484 2e-4,-21.15615 7.8614,-37.88127 23.5863,-50.17492 15.7249,-12.29322 37.3097,-18.44005 64.7561,-18.44022 13.7227,2.2e-4 26.8739,1.28674 39.4535,3.85955 12.5797,2.2872 22.5862,4.86019 30.0195,7.71931 l -11.1499,49.74603 c -7.4335,-2.57299 -15.5815,-4.86013 -24.445,-6.86168 -8.5769,-2.00086 -18.2967,-3.00172 -29.1606,-3.00178 -20.013,9e-5 -30.0192,5.57517 -30.0194,16.72489 -10e-5,2.57325 0.4287,4.8604 1.2863,6.86153 0.8576,2.0014 2.5735,4.00276 5.1459,6.00375 2.5734,1.71555 6.004,3.71686 10.2929,6.00391 4.5738,2.00136 10.2917,4.28845 17.1535,6.86146 14.0086,5.14618 25.5879,10.2924 34.7361,15.43841 9.1492,4.86039 16.2967,10.29242 21.4426,16.29617 5.4317,5.71795 9.1489,12.15068 11.1497,19.29792 2.2874,7.14758 3.4313,15.43858 3.4308,24.87301 3e-4,22.30005 -8.4304,39.16851 -25.3017,50.60374 -16.582,11.43582 -40.1685,17.15378 -70.7596,17.15371 -20.0121,8e-5 -36.7378,-1.71537 -50.1745,-5.1461 -13.1518,-3.43066 -22.2999,-6.28972 -27.4461,-8.57692 l 10.7233,-51.88978 c 10.8632,4.28843 22.0135,7.71924 33.449,10.29209 11.4362,2.28865 22.7296,3.43107 33.8793,3.43094 m -289.99884,-65.18438 c -2.5e-4,-20.01268 3.00131,-37.45243 9.00554,-52.31908 6.28919,-15.15244 14.43787,-27.73175 24.4443,-37.73835 10.0063,-10.00616 21.4422,-17.58245 34.3076,-22.72878 13.1511,-5.14591 26.588,-7.71901 40.3108,-7.71931 32.0209,3.6e-4 57.3227,9.86376 75.9062,29.59044 18.5826,19.441 27.874,48.17355 27.8743,86.19765 0,3.71774 -0.1425,7.86242 -0.429,12.43649 -0.2881,4.28813 -0.5713,8.14826 -0.8574,11.57886 l -144.9494,7e-5 c 1.4298,13.15136 7.5757,23.58637 18.4405,31.30565 10.8639,7.71928 25.4449,11.5789 43.7422,11.57888 11.7213,-6e-5 23.1576,-1.00061 34.3071,-3.00207 11.4362,-2.28699 20.7279,-5.00306 27.8748,-8.14803 l 8.577,51.89019 c -3.4302,1.7155 -8.0053,3.43069 -13.7228,5.14619 -5.7183,1.71532 -12.151,3.14475 -19.2982,4.28847 -6.8614,1.42949 -14.2943,2.57313 -22.2996,3.43075 -8.0054,0.85771 -16.0101,1.28657 -24.0151,1.28659 -20.2988,10e-6 -38.0248,-3.00199 -53.1771,-9.00583 -14.8666,-6.00375 -27.3035,-14.15195 -37.30914,-24.44407 -9.72063,-10.57809 -17.01087,-23.01457 -21.87161,-37.30954 -4.57409,-14.29473 -6.86138,-29.73317 -6.86099,-46.31517 m 150.09554,-24.44419 c -0.2866,-5.432 -1.2864,-10.72096 -3.0021,-15.86722 -1.4299,-5.1461 -3.8594,-9.72029 -7.2902,-13.72302 -3.1451,-4.00248 -7.2903,-7.29017 -12.4364,-9.86341 -4.8604,-2.57299 -11.0077,-3.85962 -18.4411,-3.85988 -7.1468,3.3e-4 -13.2941,1.28678 -18.4402,3.85959 -5.1461,2.28739 -9.4341,5.43234 -12.865,9.4347 -3.431,4.00262 -6.1464,8.72006 -8.1479,14.15188 -1.7201,5.14536 -3.0023,10.43534 -3.8606,15.86703 l 84.4826,7e-5 m -109.9183,-161.67452 -6e-4,57.03628 -89.62793,1.1e-4 -10e-6,240.15307 -66.89989,-1e-5 10e-6,-240.15309 -89.62885,-6e-5 5.1e-4,-57.0362 246.15676,-1e-4 m -316.03893,289.47026 c -10.86409,3.14486 -24.87362,6.00371 -42.02685,8.57689 -17.1542,2.85889 -35.16532,4.28844 -54.03423,4.28849 -19.15558,-1e-4 -35.16562,-2.57314 -48.03099,-7.71928 -12.57957,-5.14616 -22.58627,-12.29364 -30.01921,-21.44225 -7.43286,-9.43442 -12.7225,-20.58449 -15.86717,-33.44988 -3.14471,-12.86523 -4.7175,-27.01719 -4.71751,-42.45563 l 1.6e-4,-125.65157 63.89811,9e-5 -1.5e-4,117.93226 c 0,20.58468 2.71619,35.45133 8.14768,44.5998 5.43233,9.14883 15.58192,13.72323 30.44789,13.72302 4.57454,1e-4 9.43538,-0.1428 14.58075,-0.42885 5.14634,-0.57175 9.72106,-1.14337 13.72334,-1.71531 l 3.8e-4,-174.11089 63.89725,-1.7e-4 5.5e-4,217.85328 M 480.0633,-396.30543 c 10e-5,17.72573 -2.57324,34.02176 -7.71916,48.88832 -5.14585,14.58088 -12.57916,27.16032 -22.29992,37.73835 -9.72068,10.29224 -21.44205,18.29741 -35.165,24.01536 -13.43715,5.71793 -28.58988,8.57685 -45.45732,8.57694 -16.58251,-9e-5 -31.73505,-2.85907 -45.45763,-8.5769 -13.43765,-5.71803 -25.01595,-13.72303 -34.73665,-24.01535 -9.72063,-10.57811 -17.29706,-23.15759 -22.7293,-37.73845 -5.43129,-14.86639 -8.14787,-31.16258 -8.14797,-48.88827 7.3e-4,-17.7253 2.71648,-33.87851 8.14815,-48.45944 5.71828,-14.58052 13.43778,-27.01696 23.15761,-37.3095 10.00643,-10.29203 21.72869,-18.29709 35.16588,-24.01518 13.72291,-5.71775 28.58897,-8.57686 44.59991,-8.57689 16.2958,1.3e-4 31.16254,2.85916 44.59937,8.57675 13.72339,5.71828 25.44461,13.72323 35.16535,24.01535 9.72067,10.29248 17.29671,22.72896 22.729,37.30952 5.43223,14.5809 8.14754,30.73392 8.14768,48.45939 m -65.18422,9e-5 c -3.4e-4,-19.72681 -4.00243,-35.16511 -12.00802,-46.31534 -7.71888,-11.43558 -18.86926,-17.1536 -33.44938,-17.15371 -14.58108,1.6e-4 -25.87384,5.71805 -33.87921,17.15374 -8.00444,11.15018 -12.00738,26.58858 -12.00702,46.3153 -5.9e-4,19.72689 4.00228,35.45124 12.00772,47.17298 8.00463,11.43585 19.2979,17.15385 33.87808,17.15366 14.58102,1.5e-4 25.7309,-5.7178 33.45051,-17.15368 8.0046,-11.72176 12.00762,-27.44597 12.00732,-47.17295 m -242.09009,-61.7537 c 12.00781,-20.29844 23.44316,-40.59711 34.30785,-60.89587 10.86372,-20.29848 20.87058,-40.74 30.01882,-61.32491 l 73.76172,5e-5 c -16.29624,32.02066 -33.16412,63.04041 -50.60366,93.05933 -17.44049,30.01919 -35.87998,60.18143 -55.32111,90.48628 l -4.4e-4,113.64376 -66.89989,-1e-5 1.5e-4,-112.78614 C 118.61176,-426.18142 100.02851,-456.48647 82.303033,-486.79161 64.863197,-517.09642 47.99538,-548.2591 31.699338,-580.2798 l 77.620882,-4e-5 c 9.14862,20.58488 19.01204,41.0264 29.59001,61.32487 10.57817,20.29888 21.87151,40.59754 33.87876,60.89593"
       inkscape:connector-curvature="0" />
    <text
       xml:space="preserve"
       style="font-size:178.53590393px;font-style:normal;font-variant:normal;font-weight:normal;font-stretch:normal;line-height:125%;letter-spacing:0px;word-spacing:0px;fill:#6b6b6b;fill-opacity:1;stroke:none;display:inline;filter:url(#filter3820);font-family:Ubuntu;-inkscape-font-specification:Ubuntu"
       x="125.23335"
       y="-130.72546"
       id="text3018-8"
       sodipodi:linespacing="125%"><tspan
         sodipodi:role="line"
         id="tspan3020-7"
         x="125.23335"
         y="-130.72546"
         style="font-weight:bold;letter-spacing:-4.55647564px;fill:#6b6b6b;fill-opacity:1;-inkscape-font-specification:Ubuntu Bold">Open Source Solutions</tspan></text>
  </g>
  <g
     inkscape:label="Calque 1"
     inkscape:groupmode="layer"
     id="layer1"
     transform="translate(-986.9844,618.17755)"
     style="display:inline"
     sodipodi:insensitive="true">
    <g
       style="font-size:48px;font-style:normal;font-variant:normal;font-weight:normal;font-stretch:normal;line-height:125%;letter-spacing:0px;word-spacing:0px;fill:#003448;fill-opacity:1;stroke:none;font-family:Ubuntu;-inkscape-font-specification:Ubuntu"
       id="text3008" />
    <g
       transform="matrix(8.7698376,1.7061859,-1.7061859,8.7698376,-7819.5029,-1198.5006)"
       style="font-size:61.61133575px;font-style:normal;font-variant:normal;font-weight:normal;font-stretch:normal;line-height:125%;letter-spacing:0px;word-spacing:0px;fill:#003448;fill-opacity:1;stroke:none;font-family:Ubuntu;-inkscape-font-specification:Ubuntu"
       id="text3012">
      <path
         id="path3793"
         style="font-weight:bold;fill:#003448;-inkscape-font-specification:Ubuntu Bold"
         d="m 1205.1446,-154.10578 c 0,3.32704 -0.1232,6.42814 -0.3697,9.30331 -0.2464,2.87522 -0.575,5.79148 -0.9857,8.74881 l -7.0237,0 c -0.4108,-2.95733 -0.7599,-5.87359 -1.0474,-8.74881 -0.2465,-2.87517 -0.3697,-5.97627 -0.3697,-9.30331 l 0,-11.02843 9.7962,0 0,11.02843 m 0.8009,26.80093 c 0,1.80727 -0.5955,3.20379 -1.7867,4.18957 -1.1501,0.98578 -2.4644,1.47867 -3.9431,1.47867 -1.4787,0 -2.8136,-0.49289 -4.0047,-1.47867 -1.1501,-0.98578 -1.7252,-2.3823 -1.7252,-4.18957 0,-1.80726 0.5751,-3.20378 1.7252,-4.18957 1.1911,-0.98577 2.526,-1.47866 4.0047,-1.47867 1.4787,1e-5 2.793,0.4929 3.9431,1.47867 1.1912,0.98579 1.7867,2.38231 1.7867,4.18957 m -40.9435,-20.1786 6.8004,-2.49662 1.4208,7.30307 8.4339,-1.64082 1.1366,5.84245 -8.4338,1.64083 1.6958,8.71657 c 0.2872,1.47632 0.7677,2.60535 1.4413,3.38707 0.7051,0.77564 1.843,1.01067 3.4135,0.70511 0.7539,-0.14666 1.5112,-0.35921 2.2721,-0.63763 0.7861,-0.31594 1.4845,-0.66372 2.0953,-1.04335 l 2.0528,5.27303 c -0.7809,0.51052 -1.6652,0.99225 -2.6529,1.44521 -0.9876,0.45295 -2.2353,0.82609 -3.7431,1.11942 -1.9161,0.37278 -3.5512,0.4301 -4.9054,0.17197 -1.3604,-0.28955 -2.5061,-0.81645 -3.4371,-1.5807 -0.9372,-0.79566 -1.6912,-1.82257 -2.262,-3.08073 -0.5394,-1.26426 -0.9649,-2.69737 -1.2766,-4.29935 l -4.0516,-20.82553 m 3.6048,31.42596 -7.0204,1.36583 -4.8216,-24.78333 7.0204,-1.36582 4.8216,24.78332 m -5.5553,-32.07338 c 0.2505,1.28789 0.025,2.39124 -0.6763,3.31008 -0.6762,0.88137 -1.5796,1.43204 -2.7104,1.65201 -1.1308,0.22003 -2.1906,0.0513 -3.1792,-0.50619 -0.9634,-0.59494 -1.5703,-1.53636 -1.8209,-2.82424 -0.2505,-1.28782 -0.038,-2.37242 0.6384,-3.2538 0.7014,-0.91883 1.6175,-1.48826 2.7483,-1.70829 1.1308,-0.21996 2.1779,-0.0325 3.1413,0.56247 0.9886,0.55749 1.6082,1.48014 1.8588,2.76796 m -32.0102,7.25454 6.8003,-2.49662 1.4208,7.30307 8.4339,-1.64082 1.1367,5.84245 -8.4339,1.64083 1.6958,8.71657 c 0.2873,1.47632 0.7677,2.60535 1.4414,3.38707 0.7051,0.77563 1.8429,1.01067 3.4135,0.7051 0.7538,-0.14665 1.5112,-0.3592 2.272,-0.63763 0.7861,-0.31593 1.4846,-0.66371 2.0953,-1.04334 l 2.0528,5.27302 c -0.7809,0.51052 -1.6651,0.99226 -2.6528,1.44522 -0.9877,0.45295 -2.2354,0.82609 -3.7431,1.11942 -1.9161,0.37278 -3.5513,0.4301 -4.9055,0.17197 -1.3603,-0.28955 -2.506,-0.81645 -3.4371,-1.5807 -0.9372,-0.79566 -1.6912,-1.82257 -2.262,-3.08073 -0.5393,-1.26426 -0.9648,-2.69737 -1.2765,-4.29935 l -4.0516,-20.82553 m -6.4843,28.15651 c 1.2878,-0.25055 2.1743,-0.55341 2.6594,-0.9086 0.4851,-0.35517 0.6574,-0.89398 0.5168,-1.61645 -0.11,-0.56539 -0.5502,-0.98504 -1.3207,-1.25895 -0.7766,-0.3053 -1.9236,-0.58745 -3.441,-0.84645 -1.1788,-0.19444 -2.2665,-0.42294 -3.2629,-0.68548 -0.9651,-0.26863 -1.8198,-0.64025 -2.5641,-1.11485 -0.7505,-0.50599 -1.3809,-1.14943 -1.8915,-1.93032 -0.5105,-0.78086 -0.8819,-1.76811 -1.1141,-2.96174 -0.4522,-2.3244 0.054,-4.33 1.5189,-6.01681 1.4649,-1.68676 3.705,-2.82348 6.7205,-3.41017 1.5077,-0.2933 2.9801,-0.43306 4.4172,-0.41928 1.431,-0.0176 2.5854,0.0512 3.4632,0.20644 l -0.1617,5.70386 c -0.8717,-0.1238 -1.8158,-0.20092 -2.8324,-0.23137 -0.9851,-0.0365 -2.0744,0.0613 -3.268,0.29351 -2.1988,0.42779 -3.179,1.2542 -2.9407,2.47921 0.055,0.28272 0.151,0.52484 0.288,0.72637 0.137,0.20156 0.3683,0.38477 0.6937,0.54963 0.3194,0.13348 0.7391,0.28003 1.2592,0.43963 0.5453,0.12212 1.2224,0.25118 2.0313,0.3872 1.6491,0.26597 3.0313,0.58387 4.1464,0.95371 1.1091,0.33844 2.0105,0.78247 2.7042,1.3321 0.719,0.51212 1.2649,1.13942 1.6375,1.88191 0.4041,0.7364 0.707,1.62287 0.9086,2.65943 0.4767,2.45007 -0.089,4.48359 -1.6982,6.10059 -1.5774,1.61088 -4.0466,2.74327 -7.4076,3.39715 -2.1987,0.42777 -4.073,0.59681 -5.6226,0.50709 -1.5183,-0.0958 -2.5845,-0.21438 -3.1988,-0.35567 l 0.069,-5.93027 c 1.2852,0.23896 2.5836,0.37756 3.895,0.4158 1.3054,0.007 2.5706,-0.10888 3.7956,-0.34722 m -33.2551,-0.96296 c -0.4278,-2.19876 -0.4708,-4.179 -0.1289,-5.94072 0.3671,-1.79921 0.9935,-3.35546 1.879,-4.66876 0.8855,-1.31325 1.98,-2.39009 3.2835,-3.23051 1.3349,-0.84648 2.7562,-1.4164 4.2639,-1.70976 3.5181,-0.68441 6.5088,-0.14156 8.9722,1.62856 2.4572,1.73875 4.0922,4.69695 4.905,8.8746 0.08,0.40836 0.1524,0.86688 0.2187,1.37555 0.06,0.47729 0.1114,0.90745 0.1533,1.29048 l -15.9254,3.09832 c 0.4382,1.41436 1.3365,2.42947 2.6952,3.04534 1.3586,0.61589 3.0431,0.72827 5.0534,0.33716 1.2878,-0.25055 2.5229,-0.60493 3.7051,-1.06315 1.2076,-0.49572 2.1704,-0.99274 2.8884,-1.49104 l 2.0515,5.51777 c -0.3402,0.2618 -0.8062,0.54804 -1.3977,0.85873 -0.5916,0.31069 -1.2678,0.60524 -2.0286,0.88367 -0.7233,0.30372 -1.5155,0.58825 -2.3767,0.85359 -0.8612,0.26535 -1.7315,0.48357 -2.611,0.65468 -2.2302,0.43389 -4.2419,0.48296 -6.035,0.14721 -1.7617,-0.34185 -3.3023,-0.97124 -4.6216,-1.88815 -1.2941,-0.95442 -2.3609,-2.16497 -3.2005,-3.63164 -0.8081,-1.47277 -1.3894,-3.12008 -1.7438,-4.94193 m 15.9683,-5.89396 c -0.1476,-0.59068 -0.3705,-1.1504 -0.669,-1.67914 -0.2671,-0.53483 -0.6318,-0.98546 -1.0943,-1.3519 -0.4311,-0.37252 -0.9568,-0.64513 -1.5772,-0.81785 -0.589,-0.1788 -1.2919,-0.18876 -2.1086,-0.0299 -0.7852,0.1528 -1.4331,0.42554 -1.9435,0.81821 -0.5165,0.36131 -0.9204,0.7985 -1.2118,1.31157 -0.2914,0.5131 -0.4889,1.08944 -0.5927,1.72901 -0.079,0.60208 -0.1068,1.21069 -0.085,1.82581 l 9.282,-1.80582 m -15.5324,-15.41344 1.2191,6.26651 -9.8473,1.91582 5.1333,26.38529 -7.3502,1.429992 -5.1333,-26.385292 -9.8474,1.91582 -1.2191,-6.2665 27.0449,-5.26164 m -28.5353,38.559071 c -1.1264,0.577743 -2.6045,1.191296 -4.4341,1.84066 -1.8236,0.680775 -3.7719,1.222828 -5.845,1.626158 -2.1046,0.409442 -3.9186,0.468963 -5.4421,0.178562 -1.4921,-0.296512 -2.7443,-0.867901 -3.7565,-1.714167 -1.0183,-0.877668 -1.8378,-1.989644 -2.4583,-3.33593 -0.6205,-1.346266 -1.0958,-2.867504 -1.4258,-4.563704 l -2.6858,-13.80517 7.0204,-1.36582 2.5208,12.95706 c 0.44,2.26161 1.0562,3.83693 1.8485,4.725961 0.7924,0.889053 2.0053,1.174687 3.6386,0.856902 0.5026,-0.09777 1.0336,-0.217371 1.5928,-0.358782 0.5532,-0.172821 1.0436,-0.33341 1.4711,-0.481797 l -3.7216,-19.129334 7.0203,-1.36583 4.6567,23.935231 M 1038.3,-103.61568 c 0.3789,1.9475 0.4445,3.792927 0.1969,5.536291 -0.2537,1.711974 -0.8015,3.252948 -1.6434,4.622924 -0.848,1.338575 -1.9647,2.468638 -3.3502,3.390191 -1.3541,0.915442 -2.9578,1.553439 -4.811,1.913992 -1.8219,0.354443 -3.5478,0.364219 -5.1777,0.02933 -1.5986,-0.341001 -3.0418,-0.973012 -4.3298,-1.896034 -1.2941,-0.954423 -2.3954,-2.174566 -3.3039,-3.66043 -0.9145,-1.517255 -1.5613,-3.249628 -1.9402,-5.197124 -0.3788,-1.94747 -0.4257,-3.78025 -0.1406,-5.49834 0.3166,-1.72417 0.8989,-3.25555 1.7468,-4.59414 0.8794,-1.34466 1.9962,-2.47473 3.3503,-3.39019 1.3855,-0.92153 2.9577,-1.55342 4.7168,-1.89566 1.7904,-0.34831 3.4849,-0.35197 5.0834,-0.011 1.63,0.33492 3.0889,0.96387 4.3769,1.88687 1.288,0.92304 2.3862,2.12748 3.2947,3.61331 0.9085,1.48587 1.5521,3.20254 1.931,5.15001 m -7.1617,1.39333 c -0.4217,-2.16735 -1.1914,-3.77799 -2.3093,-4.83193 -1.0925,-1.09142 -2.4398,-1.48131 -4.0417,-1.16967 -1.602,0.31169 -2.7205,1.18129 -3.3556,2.60883 -0.6411,1.39615 -0.7509,3.17791 -0.3292,5.34525 0.4216,2.167379 1.1975,3.80943 2.3276,4.926164 1.1239,1.085342 2.4869,1.472176 4.0888,1.160502 1.602,-0.311655 2.7048,-1.178208 3.3085,-2.59966 0.6289,-1.458953 0.7326,-3.272116 0.3109,-5.439486 m -27.9181,-1.61009 c 0.8854,-2.48683 1.7079,-4.96145 2.4677,-7.42388 0.7597,-2.46238 1.4222,-4.92216 1.9873,-7.37934 l 8.1041,-1.57666 c -1.106,3.8664 -2.2962,7.63505 -3.5706,11.30596 -1.2745,3.67096 -2.6557,7.37899 -4.1439,11.124099 l 2.4291,12.485895 -7.3502,1.429991 -2.4108,-12.391662 c -2.78369,-2.914008 -5.47318,-5.846363 -8.06843,-8.797063 -2.56386,-2.95677 -5.08321,-6.02002 -7.55808,-9.18976 l 8.5281,-1.65916 c 1.44515,2.06608 2.96577,4.10113 4.56184,6.10519 1.5961,2.0041 3.27077,3.99289 5.02387,5.96639"
         inkscape:connector-curvature="0" />
    </g>
    <text
       xml:space="preserve"
       style="font-size:178.53590393px;font-style:normal;font-variant:normal;font-weight:normal;font-stretch:normal;line-height:125%;letter-spacing:0px;word-spacing:0px;fill:#8fc511;fill-opacity:1;stroke:none;font-family:Ubuntu;-inkscape-font-specification:Ubuntu"
       x="1108.1771"
       y="-70.080521"
       id="text3018"
       sodipodi:linespacing="125%"><tspan
         sodipodi:role="line"
         id="tspan3020"
         x="1108.1771"
         y="-70.080521"
         style="font-weight:bold;letter-spacing:-4.55647564px;fill:#8fc511;fill-opacity:1;-inkscape-font-specification:Ubuntu Bold">Open Source Solutions</tspan></text>
  </g>
</svg>
